<svg width="400" height="400" viewBox="0 0 400 400" fill="none" xmlns="http://www.w3.org/2000/svg">
  <!-- Background -->
  <rect width="400" height="400" rx="80" fill="url(#sqBg)"/>

  <!-- Book/Ledger -->
  <rect x="72" y="72" width="256" height="230" rx="20" fill="white" fill-opacity="0.12"/>
  <rect x="80" y="80" width="240" height="214" rx="16" stroke="white" stroke-width="5" stroke-opacity="0.35"/>
  <line x1="200" y1="80" x2="200" y2="294" stroke="white" stroke-width="3" stroke-opacity="0.25"/>

  <!-- Left lines -->
  <line x1="104" y1="124" x2="180" y2="124" stroke="white" stroke-width="5" stroke-opacity="0.6" stroke-linecap="round"/>
  <line x1="104" y1="160" x2="180" y2="160" stroke="white" stroke-width="5" stroke-opacity="0.5" stroke-linecap="round"/>
  <line x1="104" y1="196" x2="180" y2="196" stroke="white" stroke-width="5" stroke-opacity="0.4" stroke-linecap="round"/>
  <line x1="104" y1="232" x2="152" y2="232" stroke="white" stroke-width="5" stroke-opacity="0.3" stroke-linecap="round"/>

  <!-- Right checkmarks -->
  <path d="M224 124 L240 140 L272 108" stroke="#00C9A7" stroke-width="7" stroke-linecap="round" stroke-linejoin="round"/>
  <path d="M224 164 L240 180 L272 148" stroke="#00C9A7" stroke-width="7" stroke-linecap="round" stroke-linejoin="round"/>
  <path d="M224 204 L240 220 L272 188" stroke="#00C9A7" stroke-width="7" stroke-linecap="round" stroke-linejoin="round" opacity="0.7"/>

  <!-- Pulse -->
  <path d="M112 268 H160 L180 240 L200 280 L220 256 H292" stroke="#00C9A7" stroke-width="5" stroke-linecap="round" stroke-linejoin="round" opacity="0.8"/>

  <!-- Text -->
  <text x="200" y="352" text-anchor="middle" fill="white" font-family="Arial, sans-serif" font-size="36" font-weight="bold" letter-spacing="3">G-Ledger</text>

  <defs>
    <linearGradient id="sqBg" x1="0" y1="0" x2="400" y2="400" gradientUnits="userSpaceOnUse">
      <stop stop-color="#021544"/>
      <stop offset="1" stop-color="#0070F2"/>
    </linearGradient>
  </defs>
</svg>
